<svg width="17" height="17" viewBox="0 0 17 17" fill="none" xmlns="http://www.w3.org/2000/svg">
<g clip-path="url(#clip0)">
<path d="M8.5 17C7.93641 17 7.39591 16.7761 6.9974 16.3776C6.59888 15.9791 6.375 15.4386 6.375 14.875H10.625C10.625 15.4386 10.4011 15.9791 10.0026 16.3776C9.60409 16.7761 9.06359 17 8.5 17Z" fill="black"/>
<path fill-rule="evenodd" clip-rule="evenodd" d="M8.5 2.03777L9.34681 2.20884C10.3074 2.40455 11.1708 2.92613 11.7909 3.68531C12.4111 4.44449 12.7499 5.39462 12.75 6.3749C12.75 7.04215 12.8924 8.70921 13.2377 10.3508C13.4077 11.1657 13.6372 12.0146 13.9421 12.7499H3.05788C3.36281 12.0146 3.59125 11.1668 3.76231 10.3508C4.10763 8.70921 4.25 7.04215 4.25 6.3749C4.25035 5.3948 4.58926 4.44492 5.2094 3.68596C5.82954 2.927 6.69282 2.40558 7.65319 2.2099L8.5 2.03671V2.03777ZM1.89125 12.7499C1.65431 13.2248 1.38019 13.601 1.0625 13.8124H15.9375C15.6198 13.601 15.3457 13.2248 15.1088 12.7499C14.1525 10.8374 13.8125 7.3099 13.8125 6.3749C13.8125 3.80365 11.985 1.6574 9.55719 1.16759C9.57202 1.01985 9.55572 0.870646 9.50934 0.729596C9.46296 0.588546 9.38754 0.458782 9.28793 0.348674C9.18832 0.238565 9.06673 0.150556 8.93102 0.0903232C8.79531 0.0300901 8.64848 -0.00102997 8.5 -0.00102997C8.35152 -0.00102997 8.20469 0.0300901 8.06898 0.0903232C7.93326 0.150556 7.81168 0.238565 7.71207 0.348674C7.61246 0.458782 7.53704 0.588546 7.49066 0.729596C7.44428 0.870646 7.42798 1.01985 7.44281 1.16759C6.24189 1.41186 5.16229 2.06366 4.38681 3.01262C3.61134 3.96158 3.18765 5.14938 3.1875 6.3749C3.1875 7.3099 2.8475 10.8374 1.89125 12.7499Z" fill="black"/>
</g>
<defs>
<clipPath id="clip0">
<rect width="17" height="17" transform="matrix(-1 0 0 1 17 0)" fill="white"/>
</clipPath>
</defs>
</svg>
