<svg width="80" height="80" viewBox="0 0 80 80" fill="none" xmlns="http://www.w3.org/2000/svg">
<path fill-rule="evenodd" clip-rule="evenodd" d="M50.7299 23.23C50.9621 22.9971 51.238 22.8124 51.5417 22.6864C51.8454 22.5604 52.1711 22.4955 52.4999 22.4955C52.8287 22.4955 53.1543 22.5604 53.4581 22.6864C53.7618 22.8124 54.0377 22.9971 54.2699 23.23L69.2699 38.23C69.5027 38.4622 69.6874 38.7381 69.8134 39.0418C69.9395 39.3455 70.0044 39.6711 70.0044 40C70.0044 40.3288 69.9395 40.6544 69.8134 40.9581C69.6874 41.2618 69.5027 41.5377 69.2699 41.77L54.2699 56.77C53.8005 57.2394 53.1638 57.5031 52.4999 57.5031C51.836 57.5031 51.1993 57.2394 50.7299 56.77C50.2605 56.3005 49.9967 55.6638 49.9967 55C49.9967 54.3361 50.2605 53.6994 50.7299 53.2299L63.9649 40L50.7299 26.77C50.4971 26.5377 50.3124 26.2618 50.1863 25.9581C50.0603 25.6544 49.9954 25.3288 49.9954 25C49.9954 24.6711 50.0603 24.3455 50.1863 24.0418C50.3124 23.7381 50.4971 23.4622 50.7299 23.23Z" fill="black"/>
<path fill-rule="evenodd" clip-rule="evenodd" d="M10 40C10 39.337 10.2634 38.7011 10.7322 38.2322C11.2011 37.7634 11.837 37.5 12.5 37.5H65C65.663 37.5 66.2989 37.7634 66.7678 38.2322C67.2366 38.7011 67.5 39.337 67.5 40C67.5 40.663 67.2366 41.2989 66.7678 41.7678C66.2989 42.2366 65.663 42.5 65 42.5H12.5C11.837 42.5 11.2011 42.2366 10.7322 41.7678C10.2634 41.2989 10 40.663 10 40Z" fill="black"/>
</svg>
