<svg width="55" height="55" viewBox="0 0 55 55" fill="none" xmlns="http://www.w3.org/2000/svg">
<path fill-rule="evenodd" clip-rule="evenodd" d="M20.1232 39.0294C19.9635 39.1895 19.7738 39.3165 19.565 39.4031C19.3562 39.4898 19.1324 39.5344 18.9063 39.5344C18.6802 39.5344 18.4564 39.4898 18.2476 39.4031C18.0387 39.3165 17.8491 39.1895 17.6894 39.0294L7.37692 28.7169C7.21686 28.5573 7.08987 28.3676 7.00322 28.1588C6.91657 27.95 6.87197 27.7261 6.87197 27.5C6.87197 27.274 6.91657 27.0501 7.00322 26.8413C7.08987 26.6325 7.21686 26.4428 7.37692 26.2832L17.6894 15.9707C18.0122 15.6479 18.4499 15.4666 18.9063 15.4666C19.3627 15.4666 19.8004 15.6479 20.1232 15.9707C20.4459 16.2934 20.6272 16.7311 20.6272 17.1875C20.6272 17.644 20.4459 18.0817 20.1232 18.4044L11.0241 27.5L20.1232 36.5957C20.2832 36.7553 20.4102 36.945 20.4969 37.1538C20.5835 37.3626 20.6281 37.5865 20.6281 37.8125C20.6281 38.0386 20.5835 38.2625 20.4969 38.4713C20.4102 38.6801 20.2832 38.8698 20.1232 39.0294Z" fill="black"/>
<path fill-rule="evenodd" clip-rule="evenodd" d="M48.125 27.5C48.125 27.9558 47.9439 28.393 47.6216 28.7153C47.2993 29.0377 46.8621 29.2188 46.4062 29.2188L10.3125 29.2187C9.85666 29.2187 9.41949 29.0377 9.09716 28.7153C8.77483 28.393 8.59375 27.9558 8.59375 27.5C8.59375 27.0442 8.77483 26.607 9.09716 26.2847C9.41949 25.9623 9.85666 25.7812 10.3125 25.7812L46.4062 25.7812C46.8621 25.7812 47.2993 25.9623 47.6216 26.2847C47.9439 26.607 48.125 27.0442 48.125 27.5Z" fill="black"/>
</svg>
