<svg width="24" height="24" viewBox="0 0 24 24" fill="none" xmlns="http://www.w3.org/2000/svg">
<path d="M21.24 3.704C20.6834 3.14603 20.022 2.70356 19.2938 2.40203C18.5657 2.10051 17.7851 1.94587 16.997 1.947C15.339 1.947 13.837 2.62 12.751 3.707L12.024 4.443L11.298 3.704C10.212 2.618 8.71196 1.947 7.05496 1.947C5.39796 1.947 3.89796 2.619 2.81196 3.704L2.48796 4.028C1.40196 5.114 0.730957 6.614 0.730957 8.271C0.730957 9.928 1.40296 11.428 2.48796 12.514L11.037 21.063L12.002 22.074L12.025 22.051L12.05 22.076L12.954 21.122L21.562 12.514C22.646 11.427 23.317 9.928 23.317 8.271C23.317 6.614 22.647 5.115 21.562 4.028L21.24 3.704ZM20.503 11.452L12.026 19.929L3.54896 11.452C2.73496 10.638 2.23096 9.513 2.23096 8.27C2.23096 7.027 2.73496 5.902 3.54896 5.088L3.87296 4.764C4.29036 4.34551 4.78636 4.01364 5.33243 3.78746C5.8785 3.56127 6.46389 3.44523 7.05496 3.446C7.64551 3.44545 8.23037 3.5614 8.77605 3.78722C9.32172 4.01304 9.81749 4.34429 10.235 4.762L12.021 6.58L13.815 4.764C14.629 3.95 15.754 3.446 16.997 3.446C18.24 3.446 19.365 3.95 20.179 4.764L20.503 5.088C21.316 5.903 21.819 7.028 21.819 8.27C21.819 9.512 21.316 10.637 20.503 11.452Z" fill="white"/>
</svg>
