<svg width="20" height="20" viewBox="0 0 20 20" fill="none" xmlns="http://www.w3.org/2000/svg">
<path d="M8.33335 15C9.8125 14.9997 11.249 14.5045 12.4142 13.5933L16.0775 17.2567L17.2559 16.0783L13.5925 12.415C14.5042 11.2497 14.9997 9.81287 15 8.33334C15 4.6575 12.0092 1.66667 8.33335 1.66667C4.65752 1.66667 1.66669 4.6575 1.66669 8.33334C1.66669 12.0092 4.65752 15 8.33335 15ZM8.33335 3.33333C11.0909 3.33333 13.3334 5.57583 13.3334 8.33334C13.3334 11.0908 11.0909 13.3333 8.33335 13.3333C5.57585 13.3333 3.33335 11.0908 3.33335 8.33334C3.33335 5.57583 5.57585 3.33333 8.33335 3.33333Z" fill="white"/>
<path d="M9.51 7.15501C9.82583 7.47168 10 7.89001 10 8.33335H11.6667C11.6674 7.89537 11.5813 7.46159 11.4134 7.05709C11.2455 6.65258 10.999 6.28537 10.6883 5.97668C9.42666 4.71668 7.23917 4.71668 5.97833 5.97668L7.155 7.15668C7.78833 6.52501 8.88 6.52668 9.51 7.15501Z" fill="white"/>
</svg>
